<svg xmlns="http://www.w3.org/2000/svg" width="1320" height="630" viewBox="0 0 1320 630" role="img" aria-labelledby="be-exp-title be-exp-desc">
  <style>
    .title,.bar-label,.value{font-family:IBM Plex Sans,Segoe UI,sans-serif}
    .title{font-weight:650;fill:#102a43}
    .subtitle,.axis{fill:#486581;font-family:IBM Plex Sans,Segoe UI,sans-serif}
    .bar{fill:#0b4f6c}
    .bar-label,.value{fill:#243b53;font-size:14px}
    .axis{font-size:14px}
  </style>
  <title id="be-exp-title">Cardmarket Blue-Eyes version floor medians by expansion</title>
  <desc id="be-exp-desc">Median From-price in EUR for Blue-Eyes White Dragon Cardmarket version floors, grouped by expansion/set label. Snapshot 2026-08-04.</desc>
  <rect width="1320" height="630" fill="#f0f4f8"/>
  <text class="title" x="40" y="44" font-size="26">Blue-Eyes · median From by expansion (top by n)</text>
  <text class="subtitle" x="40" y="72" font-size="15">Cardmarket Versions tiles · product-level floors only · 2026-08-04 20:44 CEST</text>
  <text class="subtitle" x="40" y="94" font-size="15">Global quartiles hide incompatible editions — compare within a set</text>
  <text class="axis" x="520" y="128">Median From-price (€)</text>
  <text class="bar-label" x="40" y="164">Quarter Century Art Collection</text>
  <rect class="bar" x="520" y="150" width="36.8" height="20" rx="4"/>
  <text class="value" x="572.8" y="165">8.48 € · n=10</text>
  <text class="bar-label" x="40" y="204">The Dark Side of Dimensions Movie Pack</text>
  <rect class="bar" x="520" y="190" width="4.3" height="20" rx="4"/>
  <text class="value" x="540.3" y="205">1.00 € · n=6</text>
  <text class="bar-label" x="40" y="244">Quarter Century Stampede</text>
  <rect class="bar" x="520" y="230" width="45.5" height="20" rx="4"/>
  <text class="value" x="581.5" y="245">10.50 € · n=5</text>
  <text class="bar-label" x="40" y="284">Quarter Century Chronicle sidePride</text>
  <rect class="bar" x="520" y="270" width="188.5" height="20" rx="4"/>
  <text class="value" x="724.5" y="285">43.48 € · n=4</text>
  <text class="bar-label" x="40" y="324">Shonen Jump Magazine</text>
  <rect class="bar" x="520" y="310" width="162.4" height="20" rx="4"/>
  <text class="value" x="698.4" y="325">37.45 € · n=4</text>
  <text class="bar-label" x="40" y="364">Legend of Blue Eyes White Dragon</text>
  <rect class="bar" x="520" y="350" width="104.0" height="20" rx="4"/>
  <text class="value" x="640.0" y="365">23.98 € · n=4</text>
  <text class="bar-label" x="40" y="404">Duelist League 09</text>
  <rect class="bar" x="520" y="390" width="43.4" height="20" rx="4"/>
  <text class="value" x="579.4" y="405">10.00 € · n=4</text>
  <text class="bar-label" x="40" y="444">Legendary Duelists Season 2</text>
  <rect class="bar" x="520" y="430" width="4.0" height="20" rx="4"/>
  <text class="value" x="540.0" y="445">0.92 € · n=4</text>
  <text class="bar-label" x="40" y="484">Legendary Collection Kaiba Mega Pack</text>
  <rect class="bar" x="520" y="470" width="1.7" height="20" rx="4"/>
  <text class="value" x="537.7" y="485">0.40 € · n=4</text>
  <text class="bar-label" x="40" y="524">25th Anniversary Ultimate Kaiba Set</text>
  <rect class="bar" x="520" y="510" width="520.0" height="20" rx="4"/>
  <text class="value" x="1056.0" y="525">119.94 € · n=3</text>
  <text class="bar-label" x="40" y="564">Quarter Century Duelist Box</text>
  <rect class="bar" x="520" y="550" width="39.0" height="20" rx="4"/>
  <text class="value" x="575.0" y="565">9.00 € · n=3</text>
  <text class="bar-label" x="40" y="604">Limited Pack Stamp Edition</text>
  <rect class="bar" x="520" y="590" width="29.3" height="20" rx="4"/>
  <text class="value" x="565.3" y="605">6.75 € · n=3</text>
</svg>
