<svg xmlns="http://www.w3.org/2000/svg" width="1600" height="1100" viewBox="0 0 1600 1100" role="img" aria-labelledby="models-title models-desc">
  <style>
    .panel-title,.model-bar{font-family:Inter,Arial,sans-serif;font-weight:600}
    .panel-20 .panel-title,.panel-20 .model-bar{fill:#6c8cff}
    .panel-30 .panel-title,.panel-30 .model-bar{fill:#9b7cff}
    .panel-40 .panel-title,.panel-40 .model-bar{fill:#ffb86c}
    .panel-50 .panel-title,.panel-50 .model-bar{fill:#ff7bbd}
    .model-label,.row-value{fill:#f5f3ff;font-family:Inter,Arial,sans-serif;font-size:17px}
    .panel-title{font-size:22px}
    .axis-label{fill:#aaa7bb;font-family:Inter,Arial,sans-serif;font-size:16px}
    .panel-rule{stroke:#302d42;stroke-width:1}
    .zero-bar{stroke:#aaa7bb;stroke-width:4;stroke-dasharray:6 5}
  </style>
  <title id="models-title">Prix médians par modèle RTX</title>
  <desc id="models-desc">Comparaison des prix médians GPU-only par modèle RTX (PC, portables, lots exclus). Générations 20xx–50xx. RTX 3090 est une ligne de contrôle.</desc>
  <rect width="1600" height="1100" fill="#101018"/>
  <text x="55" y="72" fill="#f5f3ff" font-family="Inter,Arial,sans-serif" font-size="36" font-weight="600">RTX · prix médians par modèle</text>
  <text x="55" y="110" fill="#aaa7bb" font-family="Inter,Arial,sans-serif" font-size="18">704 annonces GPU classées · 137 autres/ambigus · hors PC/portable/lot · collecte partielle</text>
  <g font-family="Inter,Arial,sans-serif" font-size="18">
    <circle cx="1110" cy="70" r="8" fill="#6c8cff"/><text x="1128" y="76" fill="#d5d1e5">20xx</text>
    <circle cx="1200" cy="70" r="8" fill="#9b7cff"/><text x="1218" y="76" fill="#d5d1e5">30xx</text>
    <circle cx="1290" cy="70" r="8" fill="#ffb86c"/><text x="1308" y="76" fill="#d5d1e5">40xx</text>
    <circle cx="1380" cy="70" r="8" fill="#ff7bbd"/><text x="1398" y="76" fill="#d5d1e5">50xx</text>
  </g>
  <text x="55" y="142" fill="#aaa7bb" font-family="Inter,Arial,sans-serif" font-size="17">Chaque ligne = modèle · la barre = médiane · n = nombre d'annonces GPU</text>
<g class="panel panel-20">
<line class="panel-rule" x1="55" y1="184" x2="755" y2="184"/>
<text class="panel-title " x="55" y="170">RTX 20xx</text>
<text class="axis-label" x="245" y="206">Prix médian (€)</text>
<text class="axis-label" x="665" y="206" text-anchor="end">670 €</text>
<text class="model-label" x="55" y="249">RTX 2000</text>
<line class="zero-bar" x1="245" y1="241" x2="285" y2="241"/>
<text class="row-value" x="300" y="249">n=0</text>
<text class="model-label" x="55" y="280">RTX 2050</text>
<line class="zero-bar" x1="245" y1="272" x2="285" y2="272"/>
<text class="row-value" x="300" y="280">n=0</text>
<text class="model-label" x="55" y="311">RTX 2060</text>
<rect class="model-bar " x="245" y="289" width="125.4" height="18" rx="5"/>
<text class="row-value" x="380.4" y="311">200 € · n=110</text>
<text class="model-label" x="55" y="342">RTX 2060 SUPER</text>
<rect class="model-bar " x="245" y="320" width="118.5" height="18" rx="5"/>
<text class="row-value" x="373.5" y="342">189 € · n=17</text>
<text class="model-label" x="55" y="373">RTX 2070</text>
<rect class="model-bar " x="245" y="351" width="188.1" height="18" rx="5"/>
<text class="row-value" x="443.1" y="373">300 € · n=30</text>
<text class="model-label" x="55" y="404">RTX 2070 SUPER</text>
<rect class="model-bar " x="245" y="382" width="144.2" height="18" rx="5"/>
<text class="row-value" x="399.2" y="404">230 € · n=19</text>
<text class="model-label" x="55" y="435">RTX 2080</text>
<rect class="model-bar " x="245" y="413" width="137.9" height="18" rx="5"/>
<text class="row-value" x="392.9" y="435">220 € · n=8</text>
<text class="model-label" x="55" y="466">RTX 2080 SUPER</text>
<rect class="model-bar " x="245" y="444" width="188.1" height="18" rx="5"/>
<text class="row-value" x="443.1" y="466">300 € · n=9</text>
<text class="model-label" x="55" y="497">RTX 2080 Ti</text>
<rect class="model-bar " x="245" y="475" width="177.1" height="18" rx="5"/>
<text class="row-value" x="432.1" y="497">283 € · n=4</text>
</g>
<g class="panel panel-30">
<line class="panel-rule" x1="815" y1="184" x2="1515" y2="184"/>
<text class="panel-title " x="815" y="170">RTX 30xx</text>
<text class="axis-label" x="1005" y="206">Prix médian (€)</text>
<text class="axis-label" x="1425" y="206" text-anchor="end">670 €</text>
<text class="model-label" x="815" y="249">RTX 3050</text>
<rect class="model-bar " x="1005" y="227" width="206.9" height="18" rx="5"/>
<text class="row-value" x="1221.9" y="249">330 € · n=71</text>
<text class="model-label" x="815" y="280">RTX 3060</text>
<rect class="model-bar " x="1005" y="258" width="219.4" height="18" rx="5"/>
<text class="row-value" x="1234.4" y="280">350 € · n=104</text>
<text class="model-label" x="815" y="311">RTX 3060 Ti</text>
<rect class="model-bar " x="1005" y="289" width="169.3" height="18" rx="5"/>
<text class="row-value" x="1184.3" y="311">270 € · n=62</text>
<text class="model-label" x="815" y="342">RTX 3070</text>
<rect class="model-bar " x="1005" y="320" width="213.1" height="18" rx="5"/>
<text class="row-value" x="1228.1" y="342">340 € · n=79</text>
<text class="model-label" x="815" y="373">RTX 3070 Ti</text>
<rect class="model-bar " x="1005" y="351" width="227.2" height="18" rx="5"/>
<text class="row-value" x="1242.2" y="373">363 € · n=32</text>
<text class="model-label" x="815" y="404">RTX 3080</text>
<rect class="model-bar " x="1005" y="382" width="263.3" height="18" rx="5"/>
<text class="row-value" x="1278.3" y="404">420 € · n=59</text>
<text class="model-label" x="815" y="435">RTX 3080 Ti</text>
<rect class="model-bar " x="1005" y="413" width="313.4" height="18" rx="5"/>
<text class="row-value" x="1328.4" y="435">500 € · n=4</text>
<text class="model-label" x="815" y="466">RTX 3090</text>
<line class="zero-bar" x1="1005" y1="458" x2="1045" y2="458"/>
<text class="row-value" x="1060" y="466">n=0</text>
</g>
<g class="panel panel-40">
<line class="panel-rule" x1="55" y1="624" x2="755" y2="624"/>
<text class="panel-title " x="55" y="610">RTX 40xx</text>
<text class="axis-label" x="245" y="646">Prix médian (€)</text>
<text class="axis-label" x="665" y="646" text-anchor="end">670 €</text>
<text class="model-label" x="55" y="689">RTX 4000</text>
<rect class="model-bar " x="245" y="667" width="188.1" height="18" rx="5"/>
<text class="row-value" x="443.1" y="689">300 € · n=1</text>
<text class="model-label" x="55" y="720">RTX 4050</text>
<rect class="model-bar " x="245" y="698" width="376.1" height="18" rx="5"/>
<text class="row-value" x="631.1" y="720">600 € · n=3</text>
<text class="model-label" x="55" y="751">RTX 4060</text>
<rect class="model-bar " x="245" y="729" width="184.6" height="18" rx="5"/>
<text class="row-value" x="439.6" y="751">295 € · n=42</text>
<text class="model-label" x="55" y="782">RTX 4060 Ti</text>
<rect class="model-bar " x="245" y="760" width="219.1" height="18" rx="5"/>
<text class="row-value" x="474.1" y="782">350 € · n=18</text>
<text class="model-label" x="55" y="813">RTX 4070</text>
<rect class="model-bar " x="245" y="791" width="313.4" height="18" rx="5"/>
<text class="row-value" x="568.4" y="813">500 € · n=2</text>
<text class="model-label" x="55" y="844">RTX 4070 SUPER</text>
<rect class="model-bar " x="245" y="822" width="407.5" height="18" rx="5"/>
<text class="row-value" x="662.5" y="844">650 € · n=2</text>
<text class="model-label" x="55" y="875">RTX 4070 Ti</text>
<rect class="model-bar " x="245" y="853" width="420.0" height="18" rx="5"/>
<text class="row-value" x="675.0" y="875">670 € · n=2</text>
<text class="model-label" x="55" y="906">RTX 4070 Ti SUPER</text>
<rect class="model-bar " x="245" y="884" width="413.7" height="18" rx="5"/>
<text class="row-value" x="668.7" y="906">660 € · n=1</text>
<text class="model-label" x="55" y="937">RTX 4080</text>
<line class="zero-bar" x1="245" y1="929" x2="285" y2="929"/>
<text class="row-value" x="300" y="937">n=0</text>
<text class="model-label" x="55" y="968">RTX 4090</text>
<rect class="model-bar " x="245" y="946" width="0.6" height="18" rx="5"/>
<text class="row-value" x="255.6" y="968">1 € · n=1</text>
</g>
<g class="panel panel-50">
<line class="panel-rule" x1="815" y1="624" x2="1515" y2="624"/>
<text class="panel-title " x="815" y="610">RTX 50xx</text>
<text class="axis-label" x="1005" y="646">Prix médian (€)</text>
<text class="axis-label" x="1425" y="646" text-anchor="end">670 €</text>
<text class="model-label" x="815" y="689">RTX 5050</text>
<rect class="model-bar " x="1005" y="667" width="163.0" height="18" rx="5"/>
<text class="row-value" x="1178.0" y="689">260 € · n=1</text>
<text class="model-label" x="815" y="720">RTX 5060</text>
<rect class="model-bar " x="1005" y="698" width="213.1" height="18" rx="5"/>
<text class="row-value" x="1228.1" y="720">340 € · n=10</text>
<text class="model-label" x="815" y="751">RTX 5060 Ti</text>
<rect class="model-bar " x="1005" y="729" width="263.3" height="18" rx="5"/>
<text class="row-value" x="1278.3" y="751">420 € · n=7</text>
<text class="model-label" x="815" y="782">RTX 5070</text>
<rect class="model-bar " x="1005" y="760" width="376.1" height="18" rx="5"/>
<text class="row-value" x="1391.1" y="782">600 € · n=6</text>
<text class="model-label" x="815" y="813">RTX 5070 Ti</text>
<line class="zero-bar" x1="1005" y1="805" x2="1045" y2="805"/>
<text class="row-value" x="1060" y="813">n=0</text>
<text class="model-label" x="815" y="844">RTX 5080</text>
<line class="zero-bar" x1="1005" y1="836" x2="1045" y2="836"/>
<text class="row-value" x="1060" y="844">n=0</text>
<text class="model-label" x="815" y="875">RTX 5090</text>
<line class="zero-bar" x1="1005" y1="867" x2="1045" y2="867"/>
<text class="row-value" x="1060" y="875">n=0</text>
</g>
</svg>
